<svg xmlns="http://www.w3.org/2000/svg" width="512" height="512" viewBox="0 0 471.269 471.269"><path d="M9.753 173.05C44.249 64.794 160.401 4.786 268.652 39.292c95.652 30.471 153.588 124.707 141.999 220.906-.346 4.454-5.805 30.423-8.23 37.997l-7.005 21.109 70.251-4.761a5.235 5.235 0 0 1 5.309 3.48 5.256 5.256 0 0 1 .037 3.349 5.03 5.03 0 0 1-1.997 2.703l-133.31 92.553a5.228 5.228 0 0 1-4.58.69 5.283 5.283 0 0 1-3.343-3.218l-55.18-152.592a5.239 5.239 0 0 1 1.915-6.063c1.927-1.356 4.527-1.285 6.358.219l54.534 44.521 9.335-29.275c18.561-72.832-22.621-148.661-95.167-171.774-75.266-23.989-156.011 17.729-179.992 92.991-23.988 75.265 17.721 156.009 92.997 179.995 24.895 7.933 51.394 8.95 76.643 2.909l14.592 61.09c-36.362 8.689-74.507 7.256-110.301-4.159C35.248 397.457-24.758 281.313 9.753 173.05zm188.256-62.272c-5.991 0-10.858 4.86-10.858 10.862v145.424c0 4.038 2.241 7.749 5.813 9.62a10.974 10.974 0 0 0 5.04 1.248c2.167 0 4.32-.641 6.168-1.927l98.365-67.957c4.935-3.401 6.182-10.165 2.768-15.104-3.398-4.913-10.154-6.15-15.104-2.755l-81.338 56.184v-124.74c0-5.995-4.859-10.855-10.854-10.855z" fill="#FFF"/></svg>