<svg xmlns="http://www.w3.org/2000/svg" viewBox="0 0 494.712 494.712"><path d="M245.025 77.976H154.83c4.125 21.171 22.71 37.16 45.094 37.16 22.373 0 40.976-15.99 45.101-37.16zm-60.798 48.45h31.401v63.92h-31.401zm-29.832-60.829h91.065c6.835 0 12.375-5.544 12.375-12.378 0-6.831-5.54-12.375-12.375-12.375h-2.819C236.383 20.42 233.324 0 210.37 0h-20.883c-22.194 0-25.37 18.352-32.271 40.844h-2.82c-6.834 0-12.374 5.544-12.374 12.375-.001 6.834 5.539 12.378 12.373 12.378z"/><path d="M415.674 57.353v-30.45c0-4.755-4.026-8.56-8.833-8.233-4.375.299-7.674 4.134-7.674 8.519v26.877h-16.5V26.902c0-4.563-3.708-8.253-8.256-8.253a8.233 8.233 0 0 0-8.25 8.253v27.162h-16.506V26.902a8.254 8.254 0 0 0-8.25-8.253 8.233 8.233 0 0 0-8.25 8.253v27.162h-16.506V26.902c0-4.563-3.708-8.253-8.25-8.253a8.233 8.233 0 0 0-8.25 8.253v27.162h-16.507V26.902c0-4.563-3.708-8.253-8.251-8.253-4.787 0-8.256 3.07-8.256 10.37v28.333c-2.513 2.265-4.126 5.456-4.126 9.091 0 7.214 6.596 12.378 12.382 12.378h53.639v128.142l-26.597-6.117-43.716-63.927a24.092 24.092 0 0 0-19.887-10.493h-6.702v135.438h23.598v77.208h-47.19v-25.107h-17.218v25.107h-47.189v-77.208h23.598V126.426h-5.739a24.092 24.092 0 0 0-21.915 14.084l-63.38 138.777c-4.511 9.881-.16 21.542 9.739 26.053 9.832 4.5 21.533.196 26.044-9.724l15.151-33.154v76.61c0 9.115 7.38 16.508 16.501 16.508v114.999c0 13.214 10.814 24.364 24.025 24.129 12.822-.229 23.164-10.713 23.164-23.601V355.58c3.163 0 6.093-.889 8.606-2.418a16.506 16.506 0 0 0 8.612 2.418v115.527c0 12.889 10.343 23.373 23.166 23.601 13.212.234 24.024-10.916 24.024-24.129V355.58c9.121 0 16.501-7.393 16.501-16.508v-77.208c0-9.114-7.389-16.504-16.503-16.504h-.046v-43.249l18.615 27.271a19.687 19.687 0 0 0 11.83 8.075l42.906 9.862v204.168c0 6.811 5.327 12.656 12.138 12.784 6.943.13 12.619-5.464 12.619-12.377V245.208c3.267-2.667 5.767-6.374 6.767-10.815 1.74-7.503-1.227-14.843-6.767-19.428V78.821h53.279c6.148 0 11.602-4.341 12.576-10.411.715-4.445-1.046-8.392-3.966-11.057zM133.555 249.445l10.622-23.263v19.178h-.049c-4.094 0-7.704 1.638-10.573 4.085z"/></svg>