<svg xmlns="http://www.w3.org/2000/svg" viewBox="0 0 325.742 325.742"><path d="M243.351 145.713a37.863 37.863 0 0 0-18.607 4.912c-8.801 4.979-15.136 13.086-17.839 22.829-2.703 9.744-1.45 19.957 3.529 28.757 6.706 11.857 19.344 19.223 32.979 19.223a37.863 37.863 0 0 0 18.607-4.912c18.168-10.277 24.588-33.418 14.311-51.586-6.708-11.857-19.345-19.223-32.98-19.223zm13.745 62.105a27.858 27.858 0 0 1-13.684 3.616c-10.038 0-19.339-5.42-24.275-14.146-3.663-6.476-4.585-13.991-2.597-21.16 1.989-7.169 6.651-13.135 13.127-16.798a27.858 27.858 0 0 1 13.684-3.616c10.038 0 19.34 5.42 24.276 14.146 7.562 13.368 2.837 30.396-10.531 37.958z"/><path d="M248.036 175.196l-14.233 8.051a5 5 0 0 0 4.923 8.704l14.233-8.051a5 5 0 0 0-4.923-8.704z"/><path d="M319.348 189.278l-.289-.12c.253-3.331.266-6.66.077-9.974l.292-.116a10.001 10.001 0 0 0-3.679-19.296h-.314a76.206 76.206 0 0 0-3.77-9.219l.252-.245a9.998 9.998 0 1 0-10.784-16.418l-.288.119a75.273 75.273 0 0 0-6.999-7.107l.124-.288a10 10 0 0 0-16.247-11.043l-.222.222a76.367 76.367 0 0 0-9.185-3.853l.005-.351a10 10 0 0 0-19.236-3.983l-.126.303a75.179 75.179 0 0 0-5.615-.217 74.59 74.59 0 0 0-4.345.141l-.123-.309a10 10 0 1 0-19.296 3.679v.35a75.979 75.979 0 0 0-9.213 3.742l-.251-.259a10 10 0 0 0-16.418 10.784l.151.365a76.584 76.584 0 0 0-7.078 6.948l-.35-.151a10 10 0 0 0-11.042 16.246l.251.251a75.345 75.345 0 0 0-3.88 9.156l-.352-.005-.153-.001a10.001 10.001 0 0 0-3.831 19.237l.288.119a75.136 75.136 0 0 0-.077 9.974l-.293.116a10 10 0 0 0 3.68 19.295h.314a76.206 76.206 0 0 0 3.77 9.219l-.251.244a10 10 0 0 0 6.966 17.178 9.964 9.964 0 0 0 3.816-.76l.289-.119a75.152 75.152 0 0 0 6.999 7.107l-.125.289a10 10 0 0 0 16.246 11.042l.223-.222a76.353 76.353 0 0 0 9.184 3.853l-.005.35a10.001 10.001 0 0 0 19.235 3.986l.126-.305c1.869.14 3.742.217 5.616.217 1.457 0 2.903-.057 4.345-.141l.122.308a10.002 10.002 0 0 0 11.169 6.136 10 10 0 0 0 8.127-9.816v-.349a75.817 75.817 0 0 0 9.213-3.742l.25.258a9.99 9.99 0 0 0 7.182 3.037 10 10 0 0 0 9.237-13.821l-.151-.365a76.468 76.468 0 0 0 7.078-6.949l.351.151a10.003 10.003 0 0 0 12.237-3.559 10.002 10.002 0 0 0-1.196-12.688l-.25-.251a75.326 75.326 0 0 0 3.879-9.155l.353.005.153.001c4.732 0 8.827-3.324 9.79-7.972a9.992 9.992 0 0 0-5.956-11.259zm-85.607 49.32a9.863 9.863 0 0 0-.653-.123 55.39 55.39 0 0 1-2.601-.55c-.025-.005-.049-.012-.073-.016a56.08 56.08 0 0 1-17.026-7.176c-.049-.035-.1-.066-.149-.1a55.24 55.24 0 0 1-1.944-1.3c-.136-.106-.281-.203-.423-.303a55.412 55.412 0 0 1-13.236-13.392c-.016-.025-.034-.049-.05-.075a56.85 56.85 0 0 1-2.826-4.484 56.064 56.064 0 0 1-5.893-15.204 9.888 9.888 0 0 0-.224-1.093c-.098-.475-.198-.949-.283-1.426-.038-.345-.092-.69-.167-1.035a55.426 55.426 0 0 1 .154-18.341c.037-.157.065-.314.094-.471.128-.691.26-1.381.414-2.07.027-.096.045-.196.069-.293.192-.837.398-1.672.629-2.504 6.688-24.108 28.809-40.946 53.793-40.946 3.237 0 6.476.289 9.68.855.213.049.427.086.64.121.872.164 1.742.345 2.607.551.027.005.053.013.08.018a56.056 56.056 0 0 1 17.015 7.171c.063.045.127.085.191.128.644.412 1.28.837 1.906 1.275.147.115.303.221.458.329a55.415 55.415 0 0 1 13.204 13.368c.017.028.036.054.054.081a57.007 57.007 0 0 1 2.822 4.479c7.347 12.988 9.195 28.059 5.207 42.437-6.688 24.108-28.809 40.946-53.792 40.946a55.922 55.922 0 0 1-9.677-.857zM115.31 111.334c-6.707-11.857-19.344-19.223-32.979-19.223a37.875 37.875 0 0 0-18.608 4.912c-8.801 4.979-15.136 13.086-17.839 22.829-2.703 9.744-1.45 19.957 3.529 28.757 6.706 11.857 19.344 19.223 32.979 19.223a37.863 37.863 0 0 0 18.607-4.912c18.168-10.276 24.588-33.418 14.311-51.586zm-19.235 42.883a27.858 27.858 0 0 1-13.684 3.616c-10.038 0-19.339-5.42-24.275-14.146-3.663-6.476-4.585-13.991-2.597-21.16 1.989-7.169 6.651-13.135 13.127-16.798a27.85 27.85 0 0 1 13.685-3.616c10.037 0 19.339 5.421 24.275 14.146 7.562 13.367 2.838 30.395-10.531 37.958z"/><path d="M82.687 120.394a5 5 0 0 0-8.703 4.924l8.052 14.233a4.996 4.996 0 0 0 6.813 1.89 5 5 0 0 0 1.89-6.814l-8.052-14.233z"/><path d="M106.161 202.339v-.336a76.097 76.097 0 0 0 9.23-3.738l.233.241a9.991 9.991 0 0 0 7.181 3.036 10 10 0 0 0 9.237-13.821l-.119-.288a75.152 75.152 0 0 0 7.107-6.999l.288.124a10 10 0 0 0 11.043-16.246l-.222-.223a76.42 76.42 0 0 0 3.853-9.184l.351.005.153.001a10.001 10.001 0 0 0 3.831-19.237l-.288-.12a75.15 75.15 0 0 0 .077-9.975l.292-.116a10 10 0 0 0-3.68-19.295h-.313a76.369 76.369 0 0 0-3.77-9.219l.251-.244a10 10 0 0 0-10.783-16.419l-.318.132a75.85 75.85 0 0 0-6.985-7.084l.14-.325a10 10 0 1 0-16.247-11.041l-.255.255a76.328 76.328 0 0 0-9.152-3.883l.005-.354a10 10 0 0 0-19.236-3.984l-.128.309a75.886 75.886 0 0 0-5.636-.217 75.07 75.07 0 0 0-4.324.132l-.121-.304a10 10 0 0 0-19.296 3.679v.335a76.097 76.097 0 0 0-9.23 3.738l-.233-.24a10.002 10.002 0 0 0-12.667-1.395 10.002 10.002 0 0 0-3.751 12.18l.119.288a75.141 75.141 0 0 0-7.106 6.999l-.289-.125a10 10 0 0 0-11.041 16.248l.221.222a76.259 76.259 0 0 0-3.853 9.184l-.352-.005c-4.815-.041-8.97 3.273-9.942 7.971a9.998 9.998 0 0 0 5.959 11.264l.288.12a75.136 75.136 0 0 0-.077 9.974l-.292.116a10 10 0 0 0 3.679 19.295h.314a76.273 76.273 0 0 0 3.77 9.219l-.251.244a10.002 10.002 0 0 0 6.966 17.179 9.985 9.985 0 0 0 3.816-.759l.319-.132a75.727 75.727 0 0 0 6.985 7.084l-.14.325a10 10 0 0 0 16.246 11.041l.255-.255a76.328 76.328 0 0 0 9.152 3.883l-.005.354a10 10 0 0 0 19.235 3.984l.128-.309c1.868.139 3.747.217 5.637.217 1.443 0 2.884-.049 4.323-.132l.121.304a10.002 10.002 0 0 0 19.297-3.678zm-69.547-40.316l-.062-.091a55.547 55.547 0 0 1-1.758-2.676l-.02-.032c-.354-.576-.7-1.158-1.035-1.749-14.274-25.234-6.715-56.965 16.578-73.255l.012-.008a55.04 55.04 0 0 1 2.05-1.375c.044-.025.086-.053.129-.079a56.61 56.61 0 0 1 2.351-1.409c8.387-4.744 17.876-7.251 27.443-7.251 18.322 0 35.418 9.007 45.806 23.82.031.05.067.097.1.146a56.083 56.083 0 0 1 8.709 19.767c.011.067.027.132.039.198.166.755.317 1.512.451 2.272.022.184.058.369.091.553a55.38 55.38 0 0 1-.115 18.789c-.009.037-.014.074-.022.112a56.975 56.975 0 0 1-1.169 5.15 56.051 56.051 0 0 1-6.586 14.92c-.221.3-.427.607-.61.925-.266.405-.531.81-.807 1.208-.22.274-.428.56-.621.861a55.423 55.423 0 0 1-13.087 12.863c-.114.07-.222.147-.332.221-.597.412-1.198.819-1.814 1.209-.077.043-.15.095-.226.14-.736.462-1.482.911-2.243 1.342-8.386 4.744-17.876 7.251-27.442 7.251-18.325.001-35.423-9.008-45.81-23.822zm104.065 50.722a33.328 33.328 0 0 0-8.915-1.218c-14.896 0-28.084 10.034-32.07 24.402-4.906 17.691 5.494 36.077 23.185 40.984a33.328 33.328 0 0 0 8.915 1.218c14.896 0 28.084-10.034 32.07-24.402 4.906-17.691-5.495-36.077-23.185-40.984zm8.73 36.975c-2.191 7.896-9.435 13.411-17.616 13.411a18.36 18.36 0 0 1-4.905-.672c-9.721-2.697-15.436-12.799-12.739-22.521 2.19-7.896 9.434-13.412 17.615-13.412 1.646 0 3.297.226 4.905.672 9.721 2.698 15.436 12.801 12.74 22.522z"/><circle cx="131.778" cy="244.498" r="7.667"/></svg>